<svg width="16" height="12" viewBox="0 0 16 12" fill="none" xmlns="http://www.w3.org/2000/svg">
<path fill-rule="evenodd" clip-rule="evenodd" d="M15.1668 10.0003V2.66699C15.1668 1.56242 14.2714 0.666992 13.1668 0.666992L2.83349 0.667002C1.72893 0.667003 0.833496 1.56243 0.833496 2.667V10.0003C0.833496 11.1049 1.72893 12.0003 2.8335 12.0003L13.1668 12.0003C14.2714 12.0003 15.1668 11.1049 15.1668 10.0003ZM13.8335 4.1733V10.0003C13.8335 10.3685 13.535 10.667 13.1668 10.667L2.8335 10.667C2.46531 10.667 2.16683 10.3685 2.16683 10.0003L2.16683 4.17321L6.87561 7.37518C7.55433 7.83671 8.44613 7.83671 9.12485 7.37518L13.8335 4.1733ZM13.8259 2.56607C13.7773 2.24577 13.5007 2.00032 13.1668 2.00033L2.83349 2.00034C2.49965 2.00034 2.22311 2.24573 2.17443 2.56599L7.62535 6.27261C7.85159 6.42646 8.14886 6.42646 8.3751 6.27261L13.8259 2.56607Z" fill="white"/>
</svg>
