<svg width="12" height="15" viewBox="0 0 12 15" fill="none" xmlns="http://www.w3.org/2000/svg">
<path fill-rule="evenodd" clip-rule="evenodd" d="M3.33331 8.50065C3.33331 8.13246 3.63179 7.83398 3.99998 7.83398H7.99998C8.36817 7.83398 8.66665 8.13246 8.66665 8.50065C8.66665 8.86884 8.36817 9.16732 7.99998 9.16732H3.99998C3.63179 9.16732 3.33331 8.86884 3.33331 8.50065Z" fill="#424551"/>
<path fill-rule="evenodd" clip-rule="evenodd" d="M3.33331 11.0007C3.33331 10.6325 3.63179 10.334 3.99998 10.334H5.99998C6.36817 10.334 6.66665 10.6325 6.66665 11.0007C6.66665 11.3688 6.36817 11.6673 5.99998 11.6673H3.99998C3.63179 11.6673 3.33331 11.3688 3.33331 11.0007Z" fill="#424551"/>
<path fill-rule="evenodd" clip-rule="evenodd" d="M4.02859 0.529247C4.15361 0.404222 4.32318 0.333984 4.5 0.333984H9C10.4728 0.333984 11.6667 1.52789 11.6667 3.00065L11.6667 12.0007C11.6667 13.4734 10.4728 14.6673 9 14.6673H2.99998C1.52722 14.6673 0.333309 13.4734 0.333313 12.0006L0.333329 4.50065C0.33333 4.32384 0.403568 4.15427 0.528592 4.02925L4.02859 0.529247ZM4.33331 2.11015V4.33398H2.10947L4.33331 2.11015ZM1.66666 5.66732L1.66665 12.0006C1.66664 12.737 2.2636 13.334 2.99998 13.334H9C9.73638 13.334 10.3333 12.737 10.3333 12.0007L10.3333 3.00065C10.3333 2.26427 9.73638 1.66732 9 1.66732H5.66664V5.00065C5.66664 5.36884 5.36817 5.66732 4.99997 5.66732H1.66666Z" fill="#424551"/>
</svg>
