<svg width="10" height="16" viewBox="0 0 10 16" fill="none" xmlns="http://www.w3.org/2000/svg">
<path fill-rule="evenodd" clip-rule="evenodd" d="M2.66683 1.94759C2.11454 1.94759 1.66683 2.39531 1.66683 2.94759V13.0518C1.66683 13.604 2.11454 14.0518 2.66683 14.0518H7.3335C7.88578 14.0518 8.3335 13.604 8.3335 13.0518V2.94759C8.3335 2.39531 7.88578 1.94759 7.3335 1.94759H7.27791L7.11553 2.33723C7.01201 2.58564 6.76928 2.74744 6.50016 2.74744H3.50016C3.23105 2.74744 2.98832 2.58564 2.8848 2.33723L2.72242 1.94759H2.66683ZM0.333496 2.94759C0.333496 1.65893 1.37817 0.614258 2.66683 0.614258H7.3335C8.62216 0.614258 9.66683 1.65893 9.66683 2.94759V13.0518C9.66683 14.3404 8.62216 15.3851 7.3335 15.3851H2.66683C1.37816 15.3851 0.333496 14.3404 0.333496 13.0518V2.94759Z" fill="white"/>
</svg>
