<svg width="16" height="17" viewBox="0 0 16 17" fill="none" xmlns="http://www.w3.org/2000/svg">
<path fill-rule="evenodd" clip-rule="evenodd" d="M10.7118 7.44002C11.41 7.97368 11.41 9.02507 10.7118 9.55873L7.65853 11.8924C6.78113 12.5629 5.51553 11.9373 5.51553 10.833V6.16575C5.51553 5.06144 6.78113 4.43581 7.65853 5.1064L10.7118 7.44002ZM9.90216 8.49938L6.84887 6.16575L6.84887 10.833L9.90216 8.49938Z" fill="#424551"/>
<path fill-rule="evenodd" clip-rule="evenodd" d="M7.99996 2.49935C4.68625 2.49935 1.99996 5.18564 1.99996 8.49935C1.99996 11.8131 4.68625 14.4993 7.99996 14.4993C11.3137 14.4993 14 11.8131 14 8.49935C14 5.18564 11.3137 2.49935 7.99996 2.49935ZM0.666626 8.49935C0.666626 4.44926 3.94987 1.16602 7.99996 1.16602C12.05 1.16602 15.3333 4.44926 15.3333 8.49935C15.3333 12.5494 12.05 15.8327 7.99996 15.8327C3.94987 15.8327 0.666626 12.5494 0.666626 8.49935Z" fill="#424551"/>
</svg>
